<mxfile host="app.diagrams.net" agent="Mozilla/5.0 (Windows NT 10.0; Win64; x64; rv:129.0) Gecko/20100101 Firefox/129.0" version="24.7.14">
  <diagram name="Página-1" id="jr31Qp8VH5XD6yN4iSkv">
    <mxGraphModel grid="1" page="1" gridSize="10" guides="1" tooltips="1" connect="1" arrows="1" fold="1" pageScale="1" pageWidth="827" pageHeight="1169" math="0" shadow="0">
      <root>
        <mxCell id="0" />
        <mxCell id="1" parent="0" />
        <mxCell id="7v-5D1nOGoh0MBonF9Dy-1" value="" style="swimlane;html=1;childLayout=stackLayout;startSize=20;rounded=0;shadow=0;comic=0;labelBackgroundColor=none;strokeWidth=1;fontFamily=Verdana;fontSize=12;align=center;direction=east;" vertex="1" parent="1">
          <mxGeometry x="320" y="20" width="1000" height="880" as="geometry">
            <mxRectangle y="20" width="70" height="30" as="alternateBounds" />
          </mxGeometry>
        </mxCell>
        <mxCell id="7v-5D1nOGoh0MBonF9Dy-2" value="Usuario" style="swimlane;html=1;startSize=20;" vertex="1" parent="7v-5D1nOGoh0MBonF9Dy-1">
          <mxGeometry y="20" width="250" height="860" as="geometry" />
        </mxCell>
        <mxCell id="7v-5D1nOGoh0MBonF9Dy-3" style="edgeStyle=orthogonalEdgeStyle;rounded=0;orthogonalLoop=1;jettySize=auto;html=1;entryX=0.5;entryY=0;entryDx=0;entryDy=0;" edge="1" parent="7v-5D1nOGoh0MBonF9Dy-2" source="7v-5D1nOGoh0MBonF9Dy-4" target="7v-5D1nOGoh0MBonF9Dy-6">
          <mxGeometry relative="1" as="geometry" />
        </mxCell>
        <mxCell id="7v-5D1nOGoh0MBonF9Dy-4" value="" style="ellipse;whiteSpace=wrap;html=1;rounded=0;shadow=0;comic=0;labelBackgroundColor=none;strokeWidth=1;fillColor=#000000;fontFamily=Verdana;fontSize=12;align=center;" vertex="1" parent="7v-5D1nOGoh0MBonF9Dy-2">
          <mxGeometry x="105" y="40" width="40" height="40" as="geometry" />
        </mxCell>
        <mxCell id="7v-5D1nOGoh0MBonF9Dy-6" value="Iniciar aplicación" style="rounded=0;whiteSpace=wrap;html=1;" vertex="1" parent="7v-5D1nOGoh0MBonF9Dy-2">
          <mxGeometry x="65" y="120" width="120" height="60" as="geometry" />
        </mxCell>
        <mxCell id="7v-5D1nOGoh0MBonF9Dy-7" value="Seleccionar modificar dispositivos" style="whiteSpace=wrap;html=1;rounded=0;" vertex="1" parent="7v-5D1nOGoh0MBonF9Dy-2">
          <mxGeometry x="65" y="240" width="120" height="60" as="geometry" />
        </mxCell>
        <mxCell id="PbXoQNXIglcSusswdasT-6" style="edgeStyle=orthogonalEdgeStyle;rounded=0;orthogonalLoop=1;jettySize=auto;html=1;exitX=0.5;exitY=1;exitDx=0;exitDy=0;" edge="1" parent="7v-5D1nOGoh0MBonF9Dy-2" source="PbXoQNXIglcSusswdasT-2" target="PbXoQNXIglcSusswdasT-5">
          <mxGeometry relative="1" as="geometry" />
        </mxCell>
        <mxCell id="PbXoQNXIglcSusswdasT-2" value="Agregar o eliminar dispositivo" style="whiteSpace=wrap;html=1;rounded=0;" vertex="1" parent="7v-5D1nOGoh0MBonF9Dy-2">
          <mxGeometry x="60" y="400" width="120" height="60" as="geometry" />
        </mxCell>
        <mxCell id="PbXoQNXIglcSusswdasT-5" value="Aplicar cambios" style="whiteSpace=wrap;html=1;rounded=0;" vertex="1" parent="7v-5D1nOGoh0MBonF9Dy-2">
          <mxGeometry x="60" y="545" width="120" height="60" as="geometry" />
        </mxCell>
        <mxCell id="7v-5D1nOGoh0MBonF9Dy-13" value="Interfaz" style="swimlane;html=1;startSize=20;" vertex="1" parent="7v-5D1nOGoh0MBonF9Dy-1">
          <mxGeometry x="250" y="20" width="250" height="860" as="geometry" />
        </mxCell>
        <mxCell id="7v-5D1nOGoh0MBonF9Dy-14" value="Despliega apartado Menú principal" style="rounded=0;whiteSpace=wrap;html=1;" vertex="1" parent="7v-5D1nOGoh0MBonF9Dy-13">
          <mxGeometry x="65" y="120" width="120" height="60" as="geometry" />
        </mxCell>
        <mxCell id="7v-5D1nOGoh0MBonF9Dy-15" value="Despliega apartado de interfaz de modificacion" style="whiteSpace=wrap;html=1;rounded=0;" vertex="1" parent="7v-5D1nOGoh0MBonF9Dy-13">
          <mxGeometry x="65" y="240" width="120" height="60" as="geometry" />
        </mxCell>
        <mxCell id="7v-5D1nOGoh0MBonF9Dy-17" value="Interfaz de agregar sensor" style="whiteSpace=wrap;html=1;rounded=0;" vertex="1" parent="7v-5D1nOGoh0MBonF9Dy-13">
          <mxGeometry x="65" y="345" width="120" height="60" as="geometry" />
        </mxCell>
        <mxCell id="PbXoQNXIglcSusswdasT-1" value="Interfaz de eliminar sensor" style="whiteSpace=wrap;html=1;rounded=0;" vertex="1" parent="7v-5D1nOGoh0MBonF9Dy-13">
          <mxGeometry x="65" y="440" width="120" height="60" as="geometry" />
        </mxCell>
        <mxCell id="PbXoQNXIglcSusswdasT-18" style="edgeStyle=orthogonalEdgeStyle;rounded=0;orthogonalLoop=1;jettySize=auto;html=1;exitX=0.5;exitY=1;exitDx=0;exitDy=0;entryX=0.5;entryY=0;entryDx=0;entryDy=0;" edge="1" parent="7v-5D1nOGoh0MBonF9Dy-13" source="PbXoQNXIglcSusswdasT-10" target="7v-5D1nOGoh0MBonF9Dy-5">
          <mxGeometry relative="1" as="geometry" />
        </mxCell>
        <mxCell id="PbXoQNXIglcSusswdasT-10" value="Notificacion de cambios" style="whiteSpace=wrap;html=1;rounded=0;" vertex="1" parent="7v-5D1nOGoh0MBonF9Dy-13">
          <mxGeometry x="65" y="650" width="120" height="60" as="geometry" />
        </mxCell>
        <mxCell id="7v-5D1nOGoh0MBonF9Dy-5" value="" style="shape=mxgraph.bpmn.shape;html=1;verticalLabelPosition=bottom;labelBackgroundColor=#ffffff;verticalAlign=top;perimeter=ellipsePerimeter;outline=end;symbol=terminate;rounded=0;shadow=0;comic=0;strokeWidth=1;fontFamily=Verdana;fontSize=12;align=center;" vertex="1" parent="7v-5D1nOGoh0MBonF9Dy-13">
          <mxGeometry x="105" y="770" width="40" height="40" as="geometry" />
        </mxCell>
        <mxCell id="7v-5D1nOGoh0MBonF9Dy-21" value="Capa de negocio" style="swimlane;html=1;startSize=20;" vertex="1" parent="7v-5D1nOGoh0MBonF9Dy-1">
          <mxGeometry x="500" y="20" width="250" height="860" as="geometry">
            <mxRectangle x="500" y="20" width="40" height="970" as="alternateBounds" />
          </mxGeometry>
        </mxCell>
        <mxCell id="7v-5D1nOGoh0MBonF9Dy-23" value="" style="group" connectable="0" vertex="1" parent="7v-5D1nOGoh0MBonF9Dy-21">
          <mxGeometry x="72.5" y="330" width="105" height="100" as="geometry" />
        </mxCell>
        <mxCell id="7v-5D1nOGoh0MBonF9Dy-24" value="&lt;div&gt;¿Eliminar &lt;br&gt;&lt;/div&gt;&lt;div&gt;dispositivo?&lt;br&gt;&lt;/div&gt;" style="rhombus;whiteSpace=wrap;html=1;rounded=0;" vertex="1" parent="7v-5D1nOGoh0MBonF9Dy-23">
          <mxGeometry x="15" width="90" height="90" as="geometry" />
        </mxCell>
        <mxCell id="7v-5D1nOGoh0MBonF9Dy-25" value="No" style="rounded=1;whiteSpace=wrap;html=1;" vertex="1" parent="7v-5D1nOGoh0MBonF9Dy-23">
          <mxGeometry y="35" width="20" height="20" as="geometry" />
        </mxCell>
        <mxCell id="7v-5D1nOGoh0MBonF9Dy-26" value="Si" style="rounded=1;whiteSpace=wrap;html=1;" vertex="1" parent="7v-5D1nOGoh0MBonF9Dy-23">
          <mxGeometry x="50" y="80" width="20" height="20" as="geometry" />
        </mxCell>
        <mxCell id="PbXoQNXIglcSusswdasT-16" value="Validar datos" style="whiteSpace=wrap;html=1;rounded=0;" vertex="1" parent="7v-5D1nOGoh0MBonF9Dy-21">
          <mxGeometry x="57.5" y="650" width="120" height="60" as="geometry" />
        </mxCell>
        <mxCell id="7v-5D1nOGoh0MBonF9Dy-27" value="Base de datos" style="swimlane;html=1;startSize=20;" vertex="1" parent="7v-5D1nOGoh0MBonF9Dy-1">
          <mxGeometry x="750" y="20" width="250" height="860" as="geometry">
            <mxRectangle x="500" y="20" width="40" height="970" as="alternateBounds" />
          </mxGeometry>
        </mxCell>
        <mxCell id="PbXoQNXIglcSusswdasT-9" value="Guardar cambios" style="whiteSpace=wrap;html=1;rounded=0;" vertex="1" parent="7v-5D1nOGoh0MBonF9Dy-27">
          <mxGeometry x="111" y="545" width="120" height="60" as="geometry" />
        </mxCell>
        <mxCell id="7v-5D1nOGoh0MBonF9Dy-29" style="edgeStyle=orthogonalEdgeStyle;rounded=0;orthogonalLoop=1;jettySize=auto;html=1;entryX=0;entryY=0.5;entryDx=0;entryDy=0;" edge="1" parent="7v-5D1nOGoh0MBonF9Dy-1" source="7v-5D1nOGoh0MBonF9Dy-6" target="7v-5D1nOGoh0MBonF9Dy-14">
          <mxGeometry relative="1" as="geometry" />
        </mxCell>
        <mxCell id="7v-5D1nOGoh0MBonF9Dy-30" value="" style="edgeStyle=orthogonalEdgeStyle;rounded=0;orthogonalLoop=1;jettySize=auto;html=1;" edge="1" parent="7v-5D1nOGoh0MBonF9Dy-1" source="7v-5D1nOGoh0MBonF9Dy-14" target="7v-5D1nOGoh0MBonF9Dy-7">
          <mxGeometry relative="1" as="geometry">
            <Array as="points">
              <mxPoint x="375" y="210" />
              <mxPoint x="125" y="210" />
            </Array>
          </mxGeometry>
        </mxCell>
        <mxCell id="7v-5D1nOGoh0MBonF9Dy-31" value="" style="edgeStyle=orthogonalEdgeStyle;rounded=0;orthogonalLoop=1;jettySize=auto;html=1;entryX=0;entryY=0.5;entryDx=0;entryDy=0;exitX=1;exitY=0.5;exitDx=0;exitDy=0;" edge="1" parent="7v-5D1nOGoh0MBonF9Dy-1" source="7v-5D1nOGoh0MBonF9Dy-7" target="7v-5D1nOGoh0MBonF9Dy-15">
          <mxGeometry relative="1" as="geometry">
            <mxPoint x="210" y="290" as="sourcePoint" />
            <Array as="points" />
          </mxGeometry>
        </mxCell>
        <mxCell id="7v-5D1nOGoh0MBonF9Dy-48" value="" style="edgeStyle=orthogonalEdgeStyle;rounded=0;orthogonalLoop=1;jettySize=auto;html=1;entryX=0.5;entryY=0;entryDx=0;entryDy=0;" edge="1" parent="7v-5D1nOGoh0MBonF9Dy-1" source="7v-5D1nOGoh0MBonF9Dy-15" target="7v-5D1nOGoh0MBonF9Dy-24">
          <mxGeometry relative="1" as="geometry">
            <mxPoint x="565" y="290" as="targetPoint" />
          </mxGeometry>
        </mxCell>
        <mxCell id="7v-5D1nOGoh0MBonF9Dy-49" style="edgeStyle=orthogonalEdgeStyle;rounded=0;orthogonalLoop=1;jettySize=auto;html=1;entryX=1;entryY=0.5;entryDx=0;entryDy=0;" edge="1" parent="7v-5D1nOGoh0MBonF9Dy-1" source="7v-5D1nOGoh0MBonF9Dy-25" target="7v-5D1nOGoh0MBonF9Dy-17">
          <mxGeometry relative="1" as="geometry" />
        </mxCell>
        <mxCell id="7v-5D1nOGoh0MBonF9Dy-52" value="" style="edgeStyle=orthogonalEdgeStyle;rounded=0;orthogonalLoop=1;jettySize=auto;html=1;exitX=0.5;exitY=1;exitDx=0;exitDy=0;entryX=1;entryY=0.5;entryDx=0;entryDy=0;" edge="1" parent="7v-5D1nOGoh0MBonF9Dy-1" source="7v-5D1nOGoh0MBonF9Dy-26" target="PbXoQNXIglcSusswdasT-1">
          <mxGeometry relative="1" as="geometry">
            <mxPoint x="460" y="500" as="targetPoint" />
          </mxGeometry>
        </mxCell>
        <mxCell id="PbXoQNXIglcSusswdasT-3" style="edgeStyle=orthogonalEdgeStyle;rounded=0;orthogonalLoop=1;jettySize=auto;html=1;exitX=0;exitY=0.5;exitDx=0;exitDy=0;entryX=1;entryY=0.5;entryDx=0;entryDy=0;" edge="1" parent="7v-5D1nOGoh0MBonF9Dy-1" source="PbXoQNXIglcSusswdasT-1" target="PbXoQNXIglcSusswdasT-2">
          <mxGeometry relative="1" as="geometry">
            <Array as="points">
              <mxPoint x="230" y="490" />
              <mxPoint x="230" y="450" />
            </Array>
          </mxGeometry>
        </mxCell>
        <mxCell id="PbXoQNXIglcSusswdasT-4" style="edgeStyle=orthogonalEdgeStyle;rounded=0;orthogonalLoop=1;jettySize=auto;html=1;exitX=0;exitY=0.5;exitDx=0;exitDy=0;entryX=0.5;entryY=0;entryDx=0;entryDy=0;" edge="1" parent="7v-5D1nOGoh0MBonF9Dy-1" source="7v-5D1nOGoh0MBonF9Dy-17" target="PbXoQNXIglcSusswdasT-2">
          <mxGeometry relative="1" as="geometry" />
        </mxCell>
        <mxCell id="PbXoQNXIglcSusswdasT-7" style="edgeStyle=orthogonalEdgeStyle;rounded=0;orthogonalLoop=1;jettySize=auto;html=1;exitX=1;exitY=0.5;exitDx=0;exitDy=0;entryX=0;entryY=0.5;entryDx=0;entryDy=0;" edge="1" parent="7v-5D1nOGoh0MBonF9Dy-1" source="PbXoQNXIglcSusswdasT-5" target="PbXoQNXIglcSusswdasT-9">
          <mxGeometry relative="1" as="geometry">
            <mxPoint x="840" y="690" as="targetPoint" />
          </mxGeometry>
        </mxCell>
        <mxCell id="PbXoQNXIglcSusswdasT-15" style="edgeStyle=orthogonalEdgeStyle;rounded=0;orthogonalLoop=1;jettySize=auto;html=1;exitX=0.5;exitY=1;exitDx=0;exitDy=0;entryX=0.5;entryY=0;entryDx=0;entryDy=0;" edge="1" parent="7v-5D1nOGoh0MBonF9Dy-1" source="PbXoQNXIglcSusswdasT-9">
          <mxGeometry relative="1" as="geometry">
            <mxPoint x="620" y="670" as="targetPoint" />
          </mxGeometry>
        </mxCell>
        <mxCell id="PbXoQNXIglcSusswdasT-17" style="edgeStyle=orthogonalEdgeStyle;rounded=0;orthogonalLoop=1;jettySize=auto;html=1;exitX=0;exitY=0.5;exitDx=0;exitDy=0;entryX=1;entryY=0.5;entryDx=0;entryDy=0;" edge="1" parent="7v-5D1nOGoh0MBonF9Dy-1" source="PbXoQNXIglcSusswdasT-16" target="PbXoQNXIglcSusswdasT-10">
          <mxGeometry relative="1" as="geometry" />
        </mxCell>
      </root>
    </mxGraphModel>
  </diagram>
</mxfile>
